<?xml version="1.0" encoding="utf-8"?>
<!-- Generator: Adobe Illustrator 23.0.1, SVG Export Plug-In . SVG Version: 6.00 Build 0)  -->
<svg version="1.1" id="Layer_1" xmlns="http://www.w3.org/2000/svg" xmlns:xlink="http://www.w3.org/1999/xlink" x="0px" y="0px"
	 viewBox="0 0 382.6771545 147.4015808" style="enable-background:new 0 0 382.6771545 147.4015808;" xml:space="preserve">
<style type="text/css">
	.st0{fill:#FFFFFF;}
	.st1{fill:#2D88C8;}
</style>
<g>
	<g id="XMLID_129_">
		<path class="st0" d="M24.5668945,123.3779297c-1.4165039,1.8369141-5.1708984,3.8964844-10.0146484,3.8964844
			c-6.8666992-0.0126953-11.4379883-4.2363281-11.4379883-11.0458984c0-6.7441406,4.4794922-10.9716797,11.6137695-10.9716797
			c3.3266602,0,6.5639648,0.7333984,8.3408203,1.6386719l0.059082,5.1894531l-0.2514648-0.0009766
			c-1.1391602-4.109375-4.0078125-5.5527344-7.234375-5.5546875c-4.9462891,0.0019531-7.597168,3.7373047-7.597168,9.8828125
			c0,5.8417969,2.4487305,9.5820313,6.9023438,9.5898438c2.2285156-0.0019531,4.4135742-1.078125,5.0810547-2.9902344
			l0.0458984-4.6240234c0.0058594-0.8837891-0.5795898-1.3798828-1.5551758-1.3789063l-0.4770508,0.0009766v-0.3027344h8.4941406
			v0.3027344l-0.4555664-0.0009766c-0.9780273,0-1.5283203,0.4941406-1.5068359,1.3720703L24.5668945,123.3779297z"/>
		<path class="st0" d="M49.503418,117.7880859c0,5.8320313-4.2929688,9.4492188-10.7114258,9.4492188
			c-6.3994141,0-10.6923828-3.6171875-10.6923828-9.4492188c0-5.8525391,4.2929688-9.46875,10.6923828-9.46875
			C45.2104492,108.3193359,49.503418,111.9355469,49.503418,117.7880859z M44.8510742,117.7880859
			c0-5.1201172-2.3745117-8.2802734-6.059082-8.2802734c-3.6655273,0-6.0595703,3.1601563-6.0595703,8.2802734
			c0,5.0996094,2.394043,8.2597656,6.0595703,8.2597656C42.4765625,126.0478516,44.8510742,122.8876953,44.8510742,117.7880859z"/>
		<path class="st0" d="M76.9023438,108.7050781v0.3027344H76.675293c-0.8925781,0-1.8242188,0.4599609-2.2651367,1.40625
			l-4.4760742,13.7216797c0,0-0.5756836,1.703125-0.4790039,3.0410156h-0.2695313l-5.9106445-11.9052734l-4.0825195,8.8642578
			c0,0-0.6787109,1.5878906-0.6987305,3.0410156h-0.2695313l-6.4375-16.6289063
			c-0.4584961-1.0371094-1.3642578-1.5400391-2.2978516-1.5400391h-0.2270508v-0.3027344h8.4770508v0.3017578h-0.246582
			c-0.6567383,0-1.3735352,0.53125-0.9580078,1.6601563h-0.0146484l3.1196289,8.2402344l4.7871094-10.625h0.246582
			l0.0009766,0.0068359l0.0009766-0.0029297l5.2988281,10.6738281l2.4550781-8.2988281h-0.015625
			c0.3193359-1.1289063-0.2768555-1.6542969-0.972168-1.6542969h-0.2275391v-0.3007813L76.9023438,108.7050781z"/>
		<path class="st0" d="M92.6962891,121.2900391l-1.1738281,5.5615234H77.2998047l0.0019531-0.3027344h0.3623047
			c0.8901367,0,1.6176758-0.6816406,1.637207-1.5820313v-14.3779297c-0.0126953-0.9072266-0.7426758-1.5800781-1.637207-1.5800781
			h-0.3623047l-0.0024414-0.3027344h10.6396484c1.1352539-0.0058594,2.6635742-0.2734375,3.1416016-0.4628906v4.8232422
			l-0.3129883-0.0009766v-0.2822266c0-1.7421875-1-2.8349609-2.7475586-2.8613281h-4.3579102v7.3310547h3.4384766
			c1.4223633-0.0253906,2.3105469-1.0371094,2.3105469-2.390625v-0.1943359l0.3125-0.0009766v6.4003906l-0.3125-0.0009766
			v-0.2138672c0-1.3417969-0.8710938-2.3466797-2.2700195-2.390625h-3.4790039v7.1728516h3.6420898
			c2.5556641-0.0253906,4.3081055-1.6699219,5.1000977-4.3447266H92.6962891z"/>
		<path class="st0" d="M111.2519531,124.4892578c1.1816406,1.6064453,1.862793,2.0537109,3.109375,2.0585938v0.3027344h-2.5351563
			c-3.2851563,0-4.8320313-0.6337891-6.2695313-2.8994141c-0.6669922-1.0800781-1.7504883-3.109375-2.0273438-4.125
			c-0.5053711-1.2666016-1.2539063-1.8085938-1.8110352-1.8535156v-0.2490234c0.0151367,0,0.328125,0.0058594,0.7739258-0.0048828
			c1.2529297-0.0166016,2.6362305-0.4833984,3.1420898-3.0244141c0.0571289-0.2402344,0.1274414-0.6738281,0.1015625-1.2646484
			c-0.1352539-2.9833984-2.1665039-3.4140625-3.2143555-3.4628906c-0.7792969-0.0361328-1.3842773,0.0009766-1.7290039-0.0126953
			v14.9882813c0.0029297,1.0068359,0.8393555,1.6064453,1.644043,1.6064453h0.3286133l0.0019531,0.3027344H94.440918
			l0.0014648-0.3027344h0.3623047c0.8676758,0,1.5888672-0.6767578,1.6098633-1.5761719V110.578125
			c-0.0161133-0.9052734-0.7207031-1.5712891-1.5917969-1.5712891h-0.3803711l-0.0019531-0.3027344h9.2944336
			c3.3520508,0.0009766,6.6020508,1.1835938,6.6020508,4.9541016c0,2.1279297-1.222168,4.4570313-4.2001953,4.8867188
			c1.1982422,0.3642578,2.3525391,1.6435547,2.9189453,2.5732422c0.2553711,0.4589844,1.1357422,1.9570313,2.1962891,3.3701172
			V124.4892578z"/>
		<path class="st0" d="M143.472168,123.3779297c-1.4165039,1.8369141-5.1708984,3.8964844-10.0146484,3.8964844
			c-6.8666992-0.0126953-11.4379883-4.2363281-11.4379883-11.0458984c0-6.7441406,4.4794922-10.9716797,11.6137695-10.9716797
			c3.3266602,0,6.5639648,0.7333984,8.3408203,1.6386719l0.059082,5.1894531l-0.2514648-0.0009766
			c-1.1391602-4.109375-4.0078125-5.5527344-7.234375-5.5546875c-4.9462891,0.0019531-7.597168,3.7373047-7.597168,9.8828125
			c0,5.8417969,2.4487305,9.5820313,6.9023438,9.5898438c2.2285156-0.0019531,4.4135742-1.078125,5.0810547-2.9902344
			l0.0458984-4.6240234c0.0058594-0.8837891-0.5795898-1.3798828-1.5551758-1.3789063l-0.4770508,0.0009766v-0.3027344h8.4941406
			v0.3027344l-0.4555664-0.0009766c-0.9780273,0-1.5283203,0.4941406-1.5068359,1.3720703L143.472168,123.3779297z"/>
		<path class="st0" d="M155.0927734,126.8505859h-8.5849609l0.0019531-0.3027344h0.3583984
			c0.9443359,0,1.734375-0.6923828,1.7441406-1.6035156v-14.3320313h-0.0009766
			c-0.0078125-0.9130859-0.7983398-1.6064453-1.7441406-1.6064453h-0.3579102l-0.0019531-0.3027344h8.5751953l-0.0009766,0.3027344
			h-0.3496094c-0.9560547,0-1.7241211,0.6826172-1.7617188,1.5849609v14.359375
			c0.0307617,0.9082031,0.8012695,1.5976563,1.7626953,1.5976563h0.3579102L155.0927734,126.8505859z"/>
		<path class="st0" d="M176.4604492,126.5478516v0.3027344h-8.8881836v-0.2998047h0.237793
			c0.6977539,0,1.4819336-0.5908203,1.0297852-1.6816406l-1.1733398-2.7646484h-6.4052734l-1.2075195,2.8046875
			c-0.4160156,1.0654297,0.3603516,1.6416016,1.0498047,1.6416016h0.237793v0.2998047h-6.0546875v-0.3027344h0.2412109
			c0.7817383,0,1.7514648-0.4443359,2.3271484-1.5761719l6.2382813-13.4355469
			c0.2084961-0.4658203,1.3188477-2.8125,1.4116211-3.6660156h0.2568359l8.0942383,16.9902344
			c0.5849609,1.2138672,1.546875,1.6875,2.3754883,1.6875H176.4604492z M167.1616211,120.9150391l-2.6748047-6.3007813
			l-2.7133789,6.3007813H167.1616211z"/>
		<path class="st0" d="M198.5351563,109.0078125h-0.5126953c-0.8974609,0-1.6162109,0.6425781-1.6640625,1.5019531v13.2158203
			c0,2.1083984,0.328125,3.5117188,0.328125,3.5117188h-0.2714844l-13.9033203-12.2304688l0.0068359,9.9960938h0.0004883
			c0.0258789,0.8808594,0.753418,1.5458984,1.6665039,1.5458984h0.503418l0.0014648,0.3017578h-8.4594727l0.0014648-0.3017578
			h0.4936523c0.9130859,0,1.6591797-0.6650391,1.6665039-1.5458984v-13.2900391
			c0-2.0507813-0.3295898-3.4238281-0.3295898-3.4238281h0.2817383l0.0078125,0.0087891l13.8759766,12.1972656l-0.0136719-9.9414063
			h-0.0019531c-0.0068359-0.8818359-0.7338867-1.5458984-1.6469727-1.5458984h-0.5126953l-0.0019531-0.3027344h8.4858398
			L198.5351563,109.0078125z"/>
		<path class="st0" d="M213.8037109,108.6757813c1.1318359,0,2.7890625-0.2714844,3.1787109-0.4638672v4.7978516
			l-0.3095703-0.0009766v-0.28125c0.0117188-1.7236328-1.0009766-2.8173828-2.7685547-2.8427734h-3.4921875v15.0849609
			c0.0205078,0.8984375,0.7646484,1.5791016,1.6689453,1.5791016h0.3203125l0.0009766,0.3017578h-8.3564453l0.0009766-0.3017578
			h0.3212891c0.9121094,0,1.6425781-0.6943359,1.6689453-1.6064453v-15.0576172h-3.4941406
			c-1.7675781,0.0253906-2.7675781,1.1191406-2.7675781,2.8427734v0.28125l-0.3105469,0.0009766v-4.7978516
			c0.5,0.1923828,2.046875,0.4638672,3.1787109,0.4638672h-0.0039063h11.1669922h-0.0039063H213.8037109z"/>
		<path class="st0" d="M246.9619141,123.2285156c-1.3544922,2.2382813-3.9316406,4.0458984-8.4980469,4.0458984
			c-7.4267578-0.0302734-12.2695313-4.1347656-12.2695313-11.0390625c0-6.7646484,4.6738281-10.9785156,12.3554688-10.9785156
			c3.2207031,0,5.8056641,0.7490234,7.5205078,1.6386719l0.0585938,5.1894531l-0.2509766-0.0009766
			c-1.1025391-3.9707031-3.6992188-5.5517578-7.0244141-5.5546875c-4.7978516,0.0019531-7.7285156,3.6972656-7.7285156,9.6396484
			c0,5.9863281,2.8349609,9.7119141,7.3388672,9.8330078c4.6533203-0.0058594,7.0126953-2.03125,7.9541016-7.9775391
			l0.2519531-0.0009766L246.9619141,123.2285156z"/>
		<path class="st0" d="M264.8789063,121.2890625l-1.1835938,5.5615234h-14.2226563l0.0019531-0.3017578h0.3623047
			c0.890625,0,1.6181641-0.6816406,1.6376953-1.5820313v-14.3544922c-0.0068359-0.9121094-0.7607422-1.6064453-1.6591797-1.6064453
			h-0.3417969l-0.0009766-0.3027344h8.3837891l-0.0019531,0.3027344h-0.3417969
			c-0.9169922,0-1.6513672,0.6933594-1.6777344,1.6054688v15.0234375h3.6425781
			c2.5546875-0.0253906,4.296875-1.6699219,5.0898438-4.3457031H264.8789063z"/>
		<path class="st0" d="M281.2021484,121.2900391l-1.1728516,5.5615234h-14.2236328l0.0019531-0.3027344h0.3623047
			c0.890625,0,1.6181641-0.6816406,1.6376953-1.5820313v-14.3779297c-0.0126953-0.9072266-0.7431641-1.5800781-1.6376953-1.5800781
			h-0.3623047l-0.0019531-0.3027344h10.6396484c1.1347656-0.0058594,2.6630859-0.2734375,3.1416016-0.4628906v4.8232422
			l-0.3125-0.0009766v-0.2822266c0-1.7421875-1-2.8349609-2.7480469-2.8613281h-4.3583984v7.3310547h3.4384766
			c1.4228516-0.0253906,2.3105469-1.0371094,2.3105469-2.390625v-0.1943359l0.3134766-0.0009766v6.4003906l-0.3134766-0.0009766
			v-0.2138672c0-1.3417969-0.8701172-2.3466797-2.2695313-2.390625h-3.4785156v7.1728516h3.6416016
			c2.5556641-0.0253906,4.3076172-1.6699219,5.0996094-4.3447266H281.2021484z"/>
		<path class="st0" d="M302.1708984,126.5478516v0.3027344h-8.8876953v-0.2998047h0.2373047
			c0.6982422,0,1.4824219-0.5908203,1.0302734-1.6816406l-1.1728516-2.7646484h-6.40625l-1.2070313,2.8046875
			c-0.4160156,1.0654297,0.3603516,1.6416016,1.0498047,1.6416016h0.2373047v0.2998047h-6.0546875v-0.3027344h0.2412109
			c0.7822266,0,1.7519531-0.4443359,2.3271484-1.5761719l6.2392578-13.4355469
			c0.2080078-0.4658203,1.3183594-2.8125,1.4111328-3.6660156h0.2568359l8.09375,16.9902344
			c0.5859375,1.2138672,1.5478516,1.6875,2.3759766,1.6875H302.1708984z M292.8720703,120.9150391l-2.6748047-6.3007813
			l-2.7128906,6.3007813H292.8720703z"/>
		<path class="st0" d="M324.2470703,109.0078125h-0.5126953c-0.8974609,0-1.6162109,0.6425781-1.6640625,1.5019531v13.2158203
			c0,2.1083984,0.328125,3.5117188,0.328125,3.5117188h-0.2714844l-13.9033203-12.2304688l0.0068359,9.9960938h0.0009766
			c0.0253906,0.8808594,0.7529297,1.5458984,1.6660156,1.5458984h0.5029297l0.0019531,0.3017578h-8.4599609l0.0019531-0.3017578
			h0.4941406c0.9121094,0,1.6582031-0.6650391,1.6660156-1.5458984v-13.2900391
			c0-2.0507813-0.3291016-3.4238281-0.3291016-3.4238281h0.28125l0.0078125,0.0087891l13.8759766,12.1972656l-0.0136719-9.9414063
			h-0.0019531c-0.0068359-0.8818359-0.734375-1.5458984-1.6474609-1.5458984h-0.5117188l-0.0019531-0.3027344h8.4853516
			L324.2470703,109.0078125z"/>
		<path class="st0" d="M334.4941406,126.8505859h-8.5849609l0.0019531-0.3027344h0.3583984
			c0.9443359,0,1.734375-0.6923828,1.7441406-1.6035156v-14.3320313h-0.0009766
			c-0.0078125-0.9130859-0.7988281-1.6064453-1.7441406-1.6064453h-0.3574219l-0.0019531-0.3027344h8.5742188l-0.0009766,0.3027344
			h-0.3486328c-0.9570313,0-1.7246094,0.6826172-1.7626953,1.5849609v14.359375
			c0.03125,0.9082031,0.8017578,1.5976563,1.7626953,1.5976563h0.3583984L334.4941406,126.8505859z"/>
		<path class="st0" d="M358.4570313,109.0078125h-0.5126953c-0.8974609,0-1.6162109,0.6425781-1.6640625,1.5019531v13.2158203
			c0,2.1083984,0.328125,3.5117188,0.328125,3.5117188h-0.2714844l-13.9033203-12.2304688l0.0068359,9.9960938h0.0009766
			c0.0253906,0.8808594,0.7529297,1.5458984,1.6660156,1.5458984h0.5029297l0.0019531,0.3017578h-8.4599609l0.0019531-0.3017578
			h0.4941406c0.9121094,0,1.6582031-0.6650391,1.6660156-1.5458984v-13.2900391
			c0-2.0507813-0.3291016-3.4238281-0.3291016-3.4238281h0.28125l0.0078125,0.0087891l13.8759766,12.1972656l-0.0136719-9.9414063
			h-0.0019531c-0.0068359-0.8818359-0.734375-1.5458984-1.6474609-1.5458984h-0.5117188l-0.0019531-0.3027344h8.4853516
			L358.4570313,109.0078125z"/>
		<path class="st0" d="M377.5253906,109.6933594l0.0009766,4.8046875h-0.2324219
			c-1.0253906-3.8330078-3.4550781-4.9902344-6.3486328-4.9902344c-4.2373047,0-6.4628906,3.0859375-6.4628906,8.4189453
			c0,5.0283203,2.0341797,8.1220703,5.765625,8.1220703c1.90625,0,3.7519531-0.9072266,4.3105469-2.7617188l0.0380859-3.6474609
			c0.0039063-0.7617188-0.5029297-1.1894531-1.3320313-1.1884766h-0.4306641v-0.2646484h7.7851563v0.2646484h-0.3847656
			c-0.8496094,0-1.3232422,0.4257813-1.3017578,1.1923828l-0.0205078,4.0488281
			c-1.2724609,1.6542969-4.7988281,3.5449219-9.0644531,3.5449219c-6.0449219-0.0117188-9.9755859-3.5527344-9.9755859-9.4892578
			c0-5.8857422,3.8408203-9.4287109,10.1552734-9.4287109C372.8203125,108.3193359,375.8291016,108.8613281,377.5253906,109.6933594
			z"/>
	</g>
	<g id="XMLID_128_">
		<path class="st0" d="M155.5556641,141.8964844l-0.5595703,1.5507813h-3.9785156l0.0014648-0.0957031h0.1210938
			c0.3359375,0,0.6088867-0.2695313,0.6147461-0.6035156v-5.3740234c-0.0327148-0.3095703-0.293457-0.5498047-0.6113281-0.5498047
			h-0.121582l-0.0014648-0.0957031h0.765625h2.0390625c0.4140625-0.0039063,0.9663086-0.0996094,1.1445313-0.1738281v0.2802734
			v0.1601563h0.0004883v0.7714844l-0.097168-0.0019531V137.59375c0-0.3046875-0.2373047-0.5527344-0.5371094-0.5712891h-1.956543
			v2.9677734h1.621582v-0.0009766c0.2573242-0.0048828,0.4643555-0.2138672,0.4643555-0.4726563V139.375l0.09375-0.0009766
			v1.5195313l-0.09375-0.0019531v-0.140625c0-0.2558594-0.2016602-0.4628906-0.4541016-0.4726563h-1.6318359v2.875h1.3764648
			c1.0166016,0,1.4072266-0.5253906,1.7036133-1.2568359H155.5556641z"/>
		<path class="st0" d="M158.1914063,143.5820313c-0.5688477,0-1.3061523-0.1386719-1.6557617-0.4521484
			c-0.0605469-0.2558594-0.0356445-0.8212891,0.0952148-1.1923828h0.1108398
			c-0.0849609,0.8652344,0.4970703,1.3798828,1.3442383,1.3564453c0.793457-0.0224609,1.2788086-0.4365234,1.2788086-1.0605469
			c0-0.2988281-0.1025391-0.5429688-0.3496094-0.7587891l-1.9199219-1.4814453
			c-0.3574219-0.3056641-0.4536133-0.7041016-0.4584961-1.0380859c-0.0117188-0.7792969,0.6982422-1.4003906,1.5869141-1.4003906
			c0.4394531,0,0.734375,0.0390625,0.9492188,0.0888672h0.3208008l0.0009766,0.0976563h0.0004883l0.0126953,0.9462891h-0.1098633
			c0-0.5322266-0.355957-0.8486328-1.1088867-0.8486328c-0.6411133,0-1.1572266,0.4052734-1.1533203,0.9150391
			c0.0014648,0.2470703,0.0761719,0.5136719,0.3769531,0.7558594l1.9428711,1.4951172
			c0.2958984,0.2490234,0.4311523,0.6582031,0.4345703,1.03125
			C159.8979492,142.8925781,159.1386719,143.5820313,158.1914063,143.5820313z"/>
		<path class="st0" d="M165.8173828,137.5283203v1.0800781l-0.1020508-0.0009766l0.0004883-0.1474609
			c-0.0004883-0.2695313-0.1889648-0.4882813-0.4804688-0.4931641h-1.7368164v4.8759766
			c0.0126953,0.2832031,0.2592773,0.5087891,0.5629883,0.5087891h0.1113281l0.0014648,0.0957031h-1.9780273l0.0014648-0.0957031
			h0.1113281c0.3076172,0,0.5576172-0.2324219,0.5634766-0.5205078v-4.8642578h-1.7382813
			c-0.2915039,0.0048828-0.4799805,0.2236328-0.4799805,0.4931641l0.0004883,0.1474609l-0.1025391,0.0009766v-1.0800781
			c0.1665039,0.0654297,0.690918,0.1503906,1.0717773,0.1503906h-0.0039063h3.1293945h-0.0039063
			C165.1269531,137.6787109,165.6513672,137.59375,165.8173828,137.5283203z"/>
		<path class="st0" d="M171.6928711,143.3515625v0.0957031h-1.9716797v-0.0957031h0.0761719
			c0.21875,0,0.4648438-0.2080078,0.3393555-0.5751953l-0.5244141-1.2773438h-2.4277344L166.6557617,142.75
			c-0.1464844,0.3837891,0.105957,0.6015625,0.3300781,0.6015625h0.0761719v0.0957031h-1.8286133v-0.0957031h0.0756836
			c0.2553711,0,0.5561523-0.1640625,0.7529297-0.5546875l1.9868164-4.2539063c-0.0029297,0,0.3496094-0.7373047,0.3696289-0.9892578
			h0.0908203l2.3701172,5.2382813c0.1958008,0.3945313,0.484375,0.5595703,0.7407227,0.5595703H171.6928711z
			 M169.4941406,141.2109375l-1.078125-2.6269531l-1.1098633,2.6269531H169.4941406z"/>
		<path class="st0" d="M176.6816406,141.8359375c0,1.2519531-1.1914063,1.6113281-2.1367188,1.6113281h-2.3759766
			l0.0014648-0.0957031h0.1132813c0.3227539,0,0.565918-0.2333984,0.5751953-0.5175781v-4.5341797
			c-0.0097656-0.3115234-0.2529297-0.515625-0.5751953-0.515625h-0.1132813l-0.0014648-0.0957031h0.7158203v0.0009766h1.2421875
			c0.6894531,0,1.9970703,0.1601563,1.9970703,1.4355469c0,0.5927734-0.5292969,1.0634766-1.0551758,1.1894531
			C175.9985352,140.4277344,176.6816406,141.0644531,176.6816406,141.8359375z M175.9941406,141.8359375
			c0-1.2255859-1.1938477-1.4316406-2.2275391-1.4306641l-0.0024414-0.0957031c0.6987305,0,1.6855469-0.1298828,1.6855469-1.1845703
			c0-0.8037109-0.4941406-1.1484375-1.3349609-1.1484375h-0.652832v5.1826172h1.0766602
			C175.3652344,143.1591797,175.9941406,142.7509766,175.9941406,141.8359375z"/>
		<path class="st0" d="M182.0654297,142.0703125l-0.5288086,1.3769531h-3.8994141l0.0019531-0.0957031h0.1318359
			c0.3095703,0,0.5424805-0.2265625,0.5541992-0.5097656v-4.5371094h-0.0004883
			c-0.0063477-0.2880859-0.2597656-0.5205078-0.5737305-0.5205078h-0.112793l-0.0014648-0.0957031H179.625l-0.0014648,0.0957031
			h-0.112793c-0.3125,0-0.5668945,0.2314453-0.5732422,0.5195313v4.8496094h1.5019531
			c0.9213867-0.0126953,1.2495117-0.4619141,1.5219727-1.0830078H182.0654297z"/>
		<path class="st0" d="M184.7231445,143.4472656h-2.1743164l0.0019531-0.0957031h0.1279297
			c0.3569336,0,0.6450195-0.2314453,0.652832-0.5195313v-4.5273438h-0.0004883
			c-0.0073242-0.2880859-0.2954102-0.5205078-0.652832-0.5205078h-0.1279297l-0.0019531-0.0957031h2.1743164l-0.0004883,0.0957031
			h-0.1293945c-0.3491211,0-0.6337891,0.2236328-0.6508789,0.5029297v4.5517578
			c0.0112305,0.2851563,0.2983398,0.5126953,0.6513672,0.5126953h0.1279297L184.7231445,143.4472656z"/>
		<path class="st0" d="M187.4584961,143.5820313c-0.5688477,0-1.3061523-0.1386719-1.6557617-0.4521484
			c-0.0605469-0.2558594-0.0356445-0.8212891,0.0952148-1.1923828h0.1108398
			c-0.0849609,0.8652344,0.4970703,1.3798828,1.3442383,1.3564453c0.793457-0.0224609,1.2788086-0.4365234,1.2788086-1.0605469
			c0-0.2988281-0.1025391-0.5429688-0.3496094-0.7587891l-1.9199219-1.4814453
			c-0.3574219-0.3056641-0.4536133-0.7041016-0.4584961-1.0380859c-0.0117188-0.7792969,0.6982422-1.4003906,1.5869141-1.4003906
			c0.4394531,0,0.734375,0.0390625,0.9492188,0.0888672h0.3208008l0.0009766,0.0976563h0.0004883l0.0126953,0.9462891h-0.1098633
			c0-0.5322266-0.355957-0.8486328-1.1088867-0.8486328c-0.6411133,0-1.1572266,0.4052734-1.1533203,0.9150391
			c0.0014648,0.2470703,0.0761719,0.5136719,0.3769531,0.7558594l1.9428711,1.4951172
			c0.2958984,0.2490234,0.4311523,0.6582031,0.4345703,1.03125
			C189.1650391,142.8925781,188.4057617,143.5820313,187.4584961,143.5820313z"/>
		<path class="st0" d="M196.3154297,143.4472656h-1.9550781l0.0009766-0.0957031h0.1103516
			c0.3027344,0,0.5488281-0.2285156,0.5595703-0.5126953V140.75h-3.5429688v2.0878906
			c0.0097656,0.2851563,0.2563477,0.5136719,0.5595703,0.5136719h0.1103516l0.0009766,0.0957031h-1.9555664l0.0014648-0.0957031
			h0.1103516c0.3056641,0,0.5532227-0.2314453,0.5595703-0.5195313v-4.5273438h-0.0004883
			c-0.0058594-0.2880859-0.2539063-0.5205078-0.5595703-0.5205078h-0.1103516l-0.0014648-0.0957031h1.9560547l-0.0009766,0.0957031
			h-0.1113281c-0.2998047,0-0.5439453,0.2236328-0.5585938,0.5048828v2.1728516h3.5429688v-2.1572266h-0.0009766
			c-0.0048828-0.2880859-0.2529297-0.5205078-0.5585938-0.5205078h-0.1103516l-0.0019531-0.0957031h1.9560547l-0.0019531,0.0957031
			h-0.1103516c-0.2988281,0-0.5429688,0.2236328-0.5585938,0.5029297v4.5537109
			c0.0107422,0.2832031,0.2568359,0.5107422,0.5595703,0.5107422h0.1103516L196.3154297,143.4472656z"/>
		<path class="st0" d="M201.7871094,142.0703125l-0.5292969,1.3769531h-3.8984375l0.0019531-0.0957031h0.1308594
			c0.3105469,0,0.5429688-0.2265625,0.5546875-0.5097656v-4.5546875c-0.0087891-0.2861328-0.2421875-0.5029297-0.5546875-0.5029297
			h-0.1318359l-0.0009766-0.0957031h2.8037109c0.3857422-0.0029297,0.9052734-0.0849609,1.0722656-0.1503906v1.0859375
			l-0.1044922-0.0009766v-0.1474609c0-0.2695313-0.1894531-0.4873047-0.4814453-0.4931641h-1.9902344v2.4414063h1.6396484
			c0.2666016-0.0058594,0.3896484-0.1855469,0.3896484-0.4072266l-0.0009766-0.1220703l0.1044922-0.0009766v1.3476563
			l-0.1044922-0.0009766l0.0009766-0.1210938c0-0.2158203-0.1162109-0.3925781-0.3671875-0.4072266h-1.6621094v2.4414063h1.5019531
			c0.9208984-0.0126953,1.25-0.4619141,1.5224609-1.0830078H201.7871094z"/>
		<path class="st0" d="M208.7880859,140.5703125c0,1.7832031-1.1933594,2.8769531-3.0859375,2.8769531h-2.5087891h-0.6923828
			l0.0009766-0.0957031h0.1279297c0.3027344,0,0.5302734-0.2353516,0.5380859-0.5214844v-4.5283203
			c-0.0097656-0.3027344-0.2470703-0.5175781-0.5478516-0.5175781h-0.1171875l-0.0019531-0.0957031h0.6933594h2.5078125
			C207.5947266,137.6884766,208.7880859,138.7841797,208.7880859,140.5703125z M208.09375,140.5712891
			c0-1.6083984-0.9130859-2.59375-2.3867188-2.59375c0,0-0.6748047,0-1.9140625,0v5.1777344c1.2402344,0,1.9140625,0,1.9140625,0
			C207.1806641,143.1552734,208.09375,142.1728516,208.09375,140.5712891z"/>
		<path class="st0" d="M214.3876953,143.4472656h-2.0791016l0.0019531-0.0957031h0.2001953
			c0.2890625,0,0.5302734-0.2314453,0.5302734-0.5195313v-5.0566406c0-0.3095703-0.1523438-0.4707031-0.4414063-0.4707031
			h-0.3623047v-0.0957031c0.4990234-0.0673828,0.9482422-0.1699219,1.3222656-0.6142578h0.0957031v6.2431641
			c0,0.2851563,0.2431641,0.5136719,0.5302734,0.5136719h0.2001953L214.3876953,143.4472656z"/>
		<path class="st0" d="M216.4560547,143.7353516c1.8066406-0.5087891,2.5361328-2.3896484,2.5400391-4.296875
			c-0.0039063-1.5576172-0.4931641-2.5371094-1.4814453-2.5361328c-0.9121094-0.0009766-1.3154297,0.8339844-1.296875,1.7939453
			c0.0195313,0.9306641,0.4609375,1.6025391,1.2958984,1.5839844c0.3935547-0.0097656,0.796875-0.1630859,1.0517578-0.4970703
			l0.0527344,0.0859375c-0.9599609,1.2167969-3.0625,1.0058594-3.1201172-1.0380859
			c-0.0380859-1.3535156,0.8349609-2.1982422,2.015625-2.2177734c1.3251953-0.0185547,2.1982422,0.9892578,2.1982422,2.7646484
			c0,1.9101563-1.0078125,4.2324219-3.2207031,4.4248047L216.4560547,143.7353516z"/>
		<path class="st0" d="M224.9599609,141.7675781c-0.0009766,1.0751953-0.8164063,1.8144531-2.0732422,1.8144531
			c-1.2675781,0-2.1210938-0.7490234-2.0732422-1.8720703c0.0351563-0.8076172,0.5-1.3642578,1.3857422-1.7773438
			c-0.6230469-0.4453125-1.0410156-1.0029297-1.0410156-1.7314453c0-0.90625,0.6533203-1.5878906,1.7285156-1.6064453
			c0.9882813-0.0195313,1.7275391,0.5849609,1.7236328,1.6201172c0.0029297,0.7675781-0.4150391,1.3759766-1.1748047,1.6542969
			C224.1376953,140.2167969,224.9599609,140.6875,224.9599609,141.7675781z M224.2402344,141.8984375
			c-0.0009766-0.9853516-0.796875-1.2636719-1.4023438-1.5800781c-0.1220703-0.0634766-0.2412109-0.1298828-0.3554688-0.2001953
			c-0.5244141,0.3564453-0.9404297,0.8916016-0.9492188,1.6875c-0.0097656,0.9121094,0.5087891,1.4882813,1.3623047,1.4882813
			C223.8271484,143.2939453,224.2392578,142.6025391,224.2402344,141.8984375z M221.8779297,138.0761719
			c0.0009766,0.6396484,0.3554688,1.1386719,0.9892578,1.5029297c0.0664063,0.0390625,0.1386719,0.0771484,0.2158203,0.1162109
			c0.6044922-0.4511719,0.8105469-1.0039063,0.8076172-1.5556641c0.0039063-0.7675781-0.3808594-1.2568359-0.9951172-1.2568359
			C222.2431641,136.8828125,221.8789063,137.4296875,221.8779297,138.0761719z"/>
		<path class="st0" d="M230.6494141,140.0878906c0,2.1660156-0.8574219,3.4941406-2.2558594,3.4941406
			c-1.3994141,0-2.2568359-1.328125-2.2568359-3.4941406s0.8574219-3.4931641,2.2568359-3.4931641
			C229.7919922,136.5947266,230.6494141,137.921875,230.6494141,140.0878906z M226.8085938,140.0878906
			c0,1.9873047,0.6025391,3.2060547,1.5849609,3.2060547s1.5839844-1.21875,1.5839844-3.2060547
			s-0.6015625-3.2050781-1.5839844-3.2050781S226.8085938,138.1005859,226.8085938,140.0878906z"/>
	</g>
</g>
<g>
	<polygon class="st1" points="198.4505615,13.9971924 166.684021,60.265686 173.7201538,60.2669067 198.4519043,24.2387695 
		223.0734253,60.1091919 208.1189575,90.0258179 174.4471436,90.0258179 159.6019287,60.3319092 194.9298706,8.8660278 
		191.4125366,3.7422485 152.4385986,60.5232544 170.2282715,96.1037598 212.3131714,96.1486206 230.2385254,60.2997437 	"/>
</g>
</svg>
